<svg xmlns="http://www.w3.org/2000/svg" width="26" height="27" viewBox="0 0 26 27"><defs><style>.c51be3512c32becf5c3cb2669da2620f7{fill:none;}.sfsgaggr49637ndfm{fill:currentColor;}</style></defs><g transform="translate(-0.25 0.25)"><g transform="translate(0)"><rect class="c51be3512c32becf5c3cb2669da2620f7" width="26" height="27" transform="translate(0.25 -0.25)"/><rect class="c51be3512c32becf5c3cb2669da2620f7" width="26" height="27" transform="translate(0.25 -0.25)"/></g><g transform="translate(0.745 3.75)"><ellipse class="sfsgaggr49637ndfm" cx="4" cy="4.5" rx="4" ry="4.5" transform="translate(4.505)"/><path class="sfsgaggr49637ndfm" d="M9.772,14C6.845,14,1,15.469,1,18.386v1.1a1.1,1.1,0,0,0,1.1,1.1H17.448a1.1,1.1,0,0,0,1.1-1.1v-1.1C18.545,15.469,12.7,14,9.772,14Z" transform="translate(-1 -2.772)"/><path class="sfsgaggr49637ndfm" d="M20.483,10.29V7H18.29v3.29H15v2.193h3.29v3.29h2.193v-3.29h3.29V10.29Z" transform="translate(0.351 -3.448)"/></g></g></svg>