<svg xmlns="http://www.w3.org/2000/svg" width="25" height="25" viewBox="0 0 25 25"><defs><style>.c7815696ecbf1c96e6894b779456d330e{fill:none;}</style></defs><path class="c7815696ecbf1c96e6894b779456d330e" d="M0,0H25V25H0Z"/><path d="M14.5,5.167a2.089,2.089,0,0,0-2.083-2.083H11.375V2.042A1.045,1.045,0,0,0,10.333,1H6.167A1.045,1.045,0,0,0,5.125,2.042V3.083H4.083A2.089,2.089,0,0,0,2,5.167V20.792a2.089,2.089,0,0,0,2.083,2.083h8.333A2.089,2.089,0,0,0,14.5,20.792h6.25a2.089,2.089,0,0,0,2.083-2.083V7.25A2.089,2.089,0,0,0,20.75,5.167ZM12.417,18.708H10.333V16.625h2.083Zm0-9.375H10.333V7.25h2.083Zm4.167,9.375H14.5V16.625h2.083Zm0-9.375H14.5V7.25h2.083Zm4.167,9.375H18.667V16.625H20.75Zm0-9.375H18.667V7.25H20.75Z" transform="translate(0.083 0.042)"/></svg>