<svg xmlns="http://www.w3.org/2000/svg" viewBox="0 0 33.299 33.299"><defs><style>.a{fill:none;}.nlasfldsjflwen{fill:currentColor;}</style></defs><path class="a" d="M0,0H33.3V33.3H0Z"/><path class="nlasfldsjflwen" d="M12.55,23.424a2.775,2.775,0,1,1-2.775-2.775A2.783,2.783,0,0,1,12.55,23.424Zm-2.775-11.1A2.775,2.775,0,1,0,12.55,15.1,2.783,2.783,0,0,0,9.775,12.325ZM9.775,4A2.775,2.775,0,1,0,12.55,6.775,2.783,2.783,0,0,0,9.775,4ZM18.1,9.55a2.775,2.775,0,1,0-2.775-2.775A2.783,2.783,0,0,0,18.1,9.55Zm0,2.775A2.775,2.775,0,1,0,20.875,15.1,2.783,2.783,0,0,0,18.1,12.325Zm0,8.325a2.775,2.775,0,1,0,2.775,2.775A2.783,2.783,0,0,0,18.1,20.649Z" transform="translate(2.712 1.55)"/></svg>