<svg viewBox="0 0 128 128" style="color:currentColor;fill-rule:evenodd;clip-rule:evenodd;stroke-linejoin:round;stroke-miterlimit:2;">
  <g transform="matrix(0.73698,0,0,0.73698,-10.6157,89.8735)">
    <path d="M101.221,20.313C154.639,20.313 188.086,-22.315 188.086,-35.107C188.086,-47.9 154.639,-90.527 101.221,-90.527C48.682,-90.527 14.404,-47.9 14.404,-35.107C14.404,-22.315 48.682,20.313 101.221,20.313ZM101.318,-2.783C83.35,-2.783 68.75,-17.627 68.701,-35.059C68.701,-53.125 83.35,-67.383 101.318,-67.383C119.238,-67.383 133.838,-53.027 133.838,-35.059C133.838,-17.627 119.238,-2.783 101.318,-2.783ZM101.221,-21.582C108.691,-21.582 114.746,-27.637 114.746,-35.01C114.746,-42.383 108.691,-48.584 101.221,-48.584C93.75,-48.584 87.793,-42.383 87.793,-35.01C87.793,-27.637 93.75,-21.582 101.221,-21.582Z" style="color:currentColor;fill-rule:nonzero;"/>
  </g>
</svg>
