<svg xmlns="http://www.w3.org/2000/svg" width="43.023" height="43.022" viewBox="0 0 43.023 43.022"><defs><style>.a{fill:none;}.bRJDsdaff{fill:#fff;}</style></defs><path class="a" d="M0,0H43.023V43.022H0Z"/><path class="bRJDsdaff" d="M15.705,31.408V22.445h7.171v8.963A1.8,1.8,0,0,0,24.668,33.2h5.378a1.8,1.8,0,0,0,1.793-1.793V18.86h3.047a.889.889,0,0,0,.592-1.56L20.492,3.8a1.806,1.806,0,0,0-2.4,0L3.1,17.3a.893.893,0,0,0,.592,1.56H6.742V31.408A1.8,1.8,0,0,0,8.535,33.2h5.378A1.8,1.8,0,0,0,15.705,31.408Z" transform="translate(2.221 2.651)"/></svg>