<svg xmlns="http://www.w3.org/2000/svg" width="41" height="41" viewBox="0 0 41 41"><defs><style>.a{fill:none;}.b28c3492ffe6720d575cc1689eeea595{fill:currentColor;}</style></defs><path class="a" d="M0,0H41V41H0Z"/><path class="b28c3492ffe6720d575cc1689eeea595" d="M16.65,34.979v-10.1h7.7v10.1A1.98,1.98,0,0,0,26.27,37h5.772a1.98,1.98,0,0,0,1.924-2.021V20.834h3.271a1.01,1.01,0,0,0,.635-1.758L21.787,3.86a1.87,1.87,0,0,0-2.578,0L3.125,19.076a1.014,1.014,0,0,0,.635,1.758H7.031V34.979A1.98,1.98,0,0,0,8.955,37h5.772A1.98,1.98,0,0,0,16.65,34.979Z" transform="translate(0 0)"/></svg>