<?xml version="1.0" encoding="UTF-8" standalone="no"?>
<!DOCTYPE svg PUBLIC "-//W3C//DTD SVG 1.1//EN" "http://www.w3.org/Graphics/SVG/1.1/DTD/svg11.dtd">
<svg width="100%" height="100%" viewBox="0 0 128 128" version="1.1" xmlns="http://www.w3.org/2000/svg" xmlns:xlink="http://www.w3.org/1999/xlink" xml:space="preserve" xmlns:serif="http://www.serif.com/" style="fill-rule:evenodd;clip-rule:evenodd;stroke-linejoin:round;stroke-miterlimit:2;">
    <g id="Notes">
    </g>
    <g id="Guides">
    </g>
    <g transform="matrix(0.733061,0,0,0.733061,-9.35981,119.466)">
        <g id="Symbols">
            <g id="Thin-L">
                <path d="M20.313,11.768L179.834,11.768C182.324,11.768 184.082,9.961 184.082,7.422C184.082,4.932 182.324,3.076 179.834,3.076L166.064,3.076L166.064,-70.019C166.064,-78.027 161.963,-82.08 154.004,-82.08L46.143,-82.08C38.232,-82.08 34.082,-78.027 34.082,-70.019L34.082,3.076L20.313,3.076C17.822,3.076 16.064,4.932 16.064,7.422C16.064,9.961 17.822,11.768 20.313,11.768ZM38.037,-69.58C38.037,-75.342 40.918,-78.174 46.631,-78.174L153.516,-78.174C159.277,-78.174 162.158,-75.342 162.158,-69.58L162.158,3.076L38.037,3.076L38.037,-69.58Z" style="fill:white;fill-rule:nonzero;"/>
            </g>
        </g>
    </g>
</svg>
