<svg xmlns="http://www.w3.org/2000/svg" viewBox="0 0 44.626 44.626"><defs><style>.a{fill:none;}</style></defs><path class="a" d="M0,0H44.626V44.626H0Z"/><path d="M29.891,7H24.313a1.859,1.859,0,0,0,0,3.719h5.578a5.578,5.578,0,1,1,0,11.156H24.313a1.859,1.859,0,1,0,0,3.719h5.578A9.3,9.3,0,1,0,29.891,7ZM13.156,16.3a1.865,1.865,0,0,0,1.859,1.859H26.172a1.859,1.859,0,0,0,0-3.719H15.016A1.865,1.865,0,0,0,13.156,16.3Zm3.719,5.578H11.3a5.578,5.578,0,0,1,0-11.156h5.578a1.859,1.859,0,0,0,0-3.719H11.3a9.3,9.3,0,0,0,0,18.594h5.578a1.859,1.859,0,0,0,0-3.719Z" transform="translate(1.719 6.016)"/></svg>