<svg xmlns="http://www.w3.org/2000/svg" width="27.628" height="27.628" viewBox="0 0 27.628 27.628"><defs><style>.a{fill:none;}.c5b3d8f152339ecb75c5851ec0975733d{fill:currentColor;}</style></defs><path class="a" d="M0,0H27.628V27.628H0Z"/><path class="c5b3d8f152339ecb75c5851ec0975733d" d="M4.151,19.814H22.57a1.151,1.151,0,1,0,0-2.3H4.151a1.151,1.151,0,1,0,0,2.3Zm0-5.756H22.57a1.151,1.151,0,1,0,0-2.3H4.151a1.151,1.151,0,1,0,0,2.3ZM3,7.151A1.155,1.155,0,0,0,4.151,8.3H22.57a1.151,1.151,0,1,0,0-2.3H4.151A1.155,1.155,0,0,0,3,7.151Z" transform="translate(0.454 0.907)"/></svg>