<?xml version="1.0" encoding="UTF-8" standalone="no"?>
<!DOCTYPE svg PUBLIC "-//W3C//DTD SVG 1.1//EN" "http://www.w3.org/Graphics/SVG/1.1/DTD/svg11.dtd">
<svg width="100%" height="100%" viewBox="0 0 128 128" version="1.1" xmlns="http://www.w3.org/2000/svg" xmlns:xlink="http://www.w3.org/1999/xlink" xml:space="preserve" xmlns:serif="http://www.serif.com/" style="fill-rule:evenodd;clip-rule:evenodd;stroke-linejoin:round;stroke-miterlimit:2;">
    <g id="Notes">
    </g>
    <g id="Guides">
    </g>
    <g transform="matrix(0.54342,0,0,0.54342,31.8798,113.565)">
        <g id="Symbols">
            <g id="Thin-L">
                <path d="M39.209,26.563L78.809,26.563C88.769,26.563 93.945,21.338 93.945,11.475L93.945,-81.934C93.945,-91.797 88.769,-97.022 78.809,-97.022L39.209,-97.022C29.297,-97.022 24.121,-91.797 24.121,-81.934L24.121,11.475C24.121,21.338 29.297,26.563 39.209,26.563ZM39.502,22.656C31.592,22.656 28.027,19.19 28.027,11.279L28.027,-81.787C28.027,-89.648 31.592,-93.115 39.502,-93.115L78.516,-93.115C86.426,-93.115 89.99,-89.648 89.99,-81.787L89.99,11.279C89.99,19.19 86.426,22.656 78.516,22.656L39.502,22.656ZM40.332,-70.947L45.898,-70.947C47.266,-70.947 48.242,-71.826 48.242,-73.144L48.242,-78.906C48.242,-80.176 47.266,-81.055 45.898,-81.055L40.332,-81.055C39.014,-81.055 38.135,-80.176 38.135,-78.906L38.135,-73.144C38.135,-71.826 39.014,-70.947 40.332,-70.947ZM56.055,-70.947L61.621,-70.947C62.988,-70.947 63.965,-71.826 63.965,-73.144L63.965,-78.906C63.965,-80.176 62.988,-81.055 61.621,-81.055L56.055,-81.055C54.736,-81.055 53.857,-80.176 53.857,-78.906L53.857,-73.144C53.857,-71.826 54.736,-70.947 56.055,-70.947ZM71.777,-70.947L77.344,-70.947C78.711,-70.947 79.688,-71.826 79.688,-73.144L79.688,-78.906C79.688,-80.176 78.711,-81.055 77.344,-81.055L71.777,-81.055C70.459,-81.055 69.58,-80.176 69.58,-78.906L69.58,-73.144C69.58,-71.826 70.459,-70.947 71.777,-70.947ZM40.332,-54.785L45.898,-54.785C47.266,-54.785 48.242,-55.664 48.242,-56.934L48.242,-62.695C48.242,-64.014 47.266,-64.893 45.898,-64.893L40.332,-64.893C39.014,-64.893 38.135,-64.014 38.135,-62.695L38.135,-56.934C38.135,-55.664 39.014,-54.785 40.332,-54.785ZM56.055,-54.785L61.621,-54.785C62.988,-54.785 63.965,-55.664 63.965,-56.934L63.965,-62.695C63.965,-64.014 62.988,-64.893 61.621,-64.893L56.055,-64.893C54.736,-64.893 53.857,-64.014 53.857,-62.695L53.857,-56.934C53.857,-55.664 54.736,-54.785 56.055,-54.785ZM71.777,-54.785L77.344,-54.785C78.711,-54.785 79.688,-55.664 79.688,-56.934L79.688,-62.695C79.688,-64.014 78.711,-64.893 77.344,-64.893L71.777,-64.893C70.459,-64.893 69.58,-64.014 69.58,-62.695L69.58,-56.934C69.58,-55.664 70.459,-54.785 71.777,-54.785ZM40.332,-38.574L45.898,-38.574C47.266,-38.574 48.242,-39.453 48.242,-40.772L48.242,-46.533C48.242,-47.803 47.266,-48.682 45.898,-48.682L40.332,-48.682C39.014,-48.682 38.135,-47.803 38.135,-46.533L38.135,-40.772C38.135,-39.453 39.014,-38.574 40.332,-38.574ZM56.055,-38.574L61.621,-38.574C62.988,-38.574 63.965,-39.453 63.965,-40.772L63.965,-46.533C63.965,-47.803 62.988,-48.682 61.621,-48.682L56.055,-48.682C54.736,-48.682 53.857,-47.803 53.857,-46.533L53.857,-40.772C53.857,-39.453 54.736,-38.574 56.055,-38.574ZM40.332,12.354L45.898,12.354C47.266,12.354 48.242,11.475 48.242,10.205L48.242,4.443C48.242,3.174 47.266,2.246 45.898,2.246L40.332,2.246C39.014,2.246 38.135,3.174 38.135,4.443L38.135,10.205C38.135,11.475 39.014,12.354 40.332,12.354ZM56.055,12.354L61.621,12.354C62.988,12.354 63.965,11.475 63.965,10.205L63.965,4.443C63.965,3.174 62.988,2.246 61.621,2.246L56.055,2.246C54.736,2.246 53.857,3.174 53.857,4.443L53.857,10.205C53.857,11.475 54.736,12.354 56.055,12.354ZM71.777,12.354L77.344,12.354C78.711,12.354 79.688,11.475 79.688,10.205L79.688,4.443C79.688,3.174 78.711,2.246 77.344,2.246L71.777,2.246C70.459,2.246 69.58,3.174 69.58,4.443L69.58,10.205C69.58,11.475 70.459,12.354 71.777,12.354Z" style="fill:white;fill-rule:nonzero;"/>
            </g>
        </g>
    </g>
</svg>
