<svg width="100%" height="100%" viewBox="0 0 128 128" version="1.1" style="fill-rule:evenodd;clip-rule:evenodd;stroke-linejoin:round;stroke-miterlimit:2;">
    <g id="Notes">
    </g>
    <g id="Guides">
    </g>
    <g transform="matrix(0.565528,0,0,0.565528,14.7012,87.0507)">
        <g id="Symbols">
            <g id="Black-L">
                <path d="M41.406,28.418C45.703,31.69 50.928,30.762 56.494,26.66L87.158,4.102L117.822,26.66C123.438,30.762 128.662,31.69 132.959,28.418C137.158,25.244 137.988,19.922 135.84,13.623L123.633,-22.363L154.59,-44.531C160.107,-48.486 162.646,-53.223 160.889,-58.301C159.18,-63.33 154.443,-65.723 147.656,-65.674L109.766,-65.332L98.242,-101.611C96.143,-108.154 92.481,-111.914 87.158,-111.914C81.885,-111.914 78.223,-108.154 76.123,-101.611L64.6,-65.332L26.611,-65.674C19.922,-65.723 15.185,-63.33 13.477,-58.35C11.67,-53.223 14.258,-48.486 19.775,-44.531L50.732,-22.363L38.525,13.623C36.377,19.922 37.207,25.244 41.406,28.418Z" style="fill:white;fill-rule:nonzero;"/>
            </g>
        </g>
    </g>
</svg>
