<?xml version="1.0" encoding="UTF-8" standalone="no"?>
<!DOCTYPE svg PUBLIC "-//W3C//DTD SVG 1.1//EN" "http://www.w3.org/Graphics/SVG/1.1/DTD/svg11.dtd">
<svg width="100%" height="100%" viewBox="0 0 128 100" version="1.1" xmlns="http://www.w3.org/2000/svg" xmlns:xlink="http://www.w3.org/1999/xlink" xml:space="preserve" xmlns:serif="http://www.serif.com/" style="fill-rule:evenodd;clip-rule:evenodd;stroke-linejoin:round;stroke-miterlimit:2;">
    <g id="Notes">
    </g>
    <g id="Guides">
    </g>
    <g transform="matrix(0.876445,0,0,0.876445,-14.0797,80.6909)">
        <g id="Symbols">
            <g id="Thin-L">
                <path d="M28.418,5.811L149.756,5.811C157.959,5.811 162.109,1.66 162.109,-6.543L162.109,-79.785C162.109,-87.988 157.959,-92.09 149.756,-92.09L28.418,-92.09C20.215,-92.09 16.064,-87.988 16.064,-79.785L16.064,-6.543C16.064,1.66 20.215,5.811 28.418,5.811ZM28.662,1.855C22.852,1.855 19.971,-0.928 19.971,-6.689L19.971,-79.59C19.971,-85.4 22.852,-88.184 28.662,-88.184L149.561,-88.184C155.322,-88.184 158.203,-85.4 158.203,-79.59L158.203,-6.689C158.203,-0.928 155.322,1.855 149.561,1.855L28.662,1.855ZM54.883,21.484L123.291,21.484C124.463,21.484 125.342,20.654 125.342,19.531C125.342,18.359 124.463,17.529 123.291,17.529L54.883,17.529C53.711,17.529 52.832,18.359 52.832,19.531C52.832,20.654 53.711,21.484 54.883,21.484Z" style="fill:white;fill-rule:nonzero;"/>
            </g>
        </g>
    </g>
</svg>
