<svg xmlns="http://www.w3.org/2000/svg" width="43.023" height="43.022" viewBox="0 0 43.023 43.022"><defs><style>.a{fill:none;}.a9229dc89fa3aa066b8db7fab507f84a{fill:currentColor;}</style></defs><path class="a" d="M0,0H43.023V43.022H0Z"/><path class="a9229dc89fa3aa066b8db7fab507f84a" d="M30.682,4l3.263,6.525a.451.451,0,0,1-.394.645H30a1.752,1.752,0,0,1-1.6-.986L25.3,4H21.719l3.263,6.525a.451.451,0,0,1-.394.645H21.038a1.752,1.752,0,0,1-1.6-.986L16.341,4H12.756l3.263,6.525a.451.451,0,0,1-.394.645H12.075a1.8,1.8,0,0,1-1.613-.986L7.378,4H5.585A3.6,3.6,0,0,0,2,7.585V29.1a3.6,3.6,0,0,0,3.585,3.585H34.267A3.6,3.6,0,0,0,37.853,29.1V5.793A1.8,1.8,0,0,0,36.06,4Z" transform="translate(1.585 3.17)"/></svg>