<svg xmlns="http://www.w3.org/2000/svg" width="32.267" height="21.511" viewBox="0 0 32.267 21.511">
  <defs>
    <style>.c8564a63273a2e5182f858b8ed02aa107{fill: currentColor;}</style>
  </defs>
  <path class="c8564a63273a2e5182f858b8ed02aa107" d="M28.1,14.067V7.793A1.8,1.8,0,0,0,26.3,6H4.793A1.8,1.8,0,0,0,3,7.793V25.719a1.8,1.8,0,0,0,1.793,1.793H26.3A1.8,1.8,0,0,0,28.1,25.719V19.444L32.2,23.549a1.8,1.8,0,0,0,3.065-1.273V11.216A1.8,1.8,0,0,0,32.2,9.944Zm-7.171,4.481H17.341v3.585a1.793,1.793,0,0,1-3.585,0V18.548H10.171a1.793,1.793,0,1,1,0-3.585h3.585V11.378a1.793,1.793,0,0,1,3.585,0v3.585h3.585a1.793,1.793,0,1,1,0,3.585Z" transform="translate(-3 -6)"/>
</svg>